<svg xmlns="http://www.w3.org/2000/svg" xmlns:xlink="http://www.w3.org/1999/xlink" width="500" zoomAndPan="magnify" viewBox="0 0 375 374.999991" height="500" preserveAspectRatio="xMidYMid meet" version="1.0"><defs><clipPath id="05379df616"><path d="M 179.195312 179.195312 L 187.5 179.195312 L 187.5 187.5 L 179.195312 187.5 Z M 179.195312 179.195312 " clip-rule="nonzero" data-index="0"></path></clipPath><clipPath id="4811c996a7"><path d="M 183.347656 179.195312 C 181.054688 179.195312 179.195312 181.054688 179.195312 183.347656 C 179.195312 185.640625 181.054688 187.5 183.347656 187.5 C 185.640625 187.5 187.5 185.640625 187.5 183.347656 C 187.5 181.054688 185.640625 179.195312 183.347656 179.195312 Z M 183.347656 179.195312 " clip-rule="nonzero" data-index="1"></path></clipPath></defs><g clip-path="url(#05379df616)"><g clip-path="url(#4811c996a7)"><path  d="M 179.195312 179.195312 L 187.5 179.195312 L 187.5 187.5 L 179.195312 187.5 Z M 179.195312 179.195312 " fill-opacity="1" fill-rule="nonzero" data-index="2"></path></g></g><path  d="M 295.394531 188.28125 C 295.394531 190.035156 295.351562 191.785156 295.265625 193.539062 C 295.179688 195.289062 295.046875 197.039062 294.875 198.78125 C 294.703125 200.527344 294.492188 202.265625 294.234375 204 C 293.976562 205.734375 293.675781 207.464844 293.335938 209.183594 C 292.992188 210.902344 292.609375 212.613281 292.183594 214.3125 C 291.753906 216.015625 291.289062 217.703125 290.777344 219.382812 C 290.269531 221.058594 289.71875 222.726562 289.128906 224.375 C 288.539062 226.027344 287.90625 227.664062 287.238281 229.28125 C 286.566406 230.902344 285.855469 232.503906 285.105469 234.089844 C 284.355469 235.675781 283.566406 237.242188 282.742188 238.789062 C 281.914062 240.332031 281.050781 241.859375 280.148438 243.363281 C 279.246094 244.867188 278.308594 246.347656 277.335938 247.804688 C 276.363281 249.265625 275.351562 250.695312 274.308594 252.105469 C 273.261719 253.515625 272.183594 254.894531 271.074219 256.25 C 269.960938 257.605469 268.816406 258.933594 267.636719 260.234375 C 266.460938 261.53125 265.25 262.800781 264.011719 264.042969 C 262.773438 265.28125 261.503906 266.492188 260.203125 267.667969 C 258.902344 268.847656 257.574219 269.992188 256.21875 271.101562 C 254.863281 272.214844 253.484375 273.292969 252.074219 274.339844 C 250.667969 275.382812 249.234375 276.390625 247.773438 277.367188 C 246.316406 278.339844 244.835938 279.277344 243.332031 280.179688 C 241.828125 281.082031 240.304688 281.945312 238.757812 282.773438 C 237.210938 283.597656 235.644531 284.386719 234.058594 285.136719 C 232.472656 285.886719 230.871094 286.597656 229.25 287.269531 C 227.632812 287.9375 225.996094 288.570312 224.34375 289.160156 C 222.695312 289.75 221.03125 290.300781 219.351562 290.808594 C 217.675781 291.320312 215.984375 291.785156 214.285156 292.210938 C 212.582031 292.636719 210.871094 293.023438 209.152344 293.363281 C 207.433594 293.707031 205.707031 294.007812 203.972656 294.265625 C 202.238281 294.519531 200.496094 294.734375 198.75 294.90625 C 197.007812 295.078125 195.257812 295.207031 193.507812 295.292969 C 191.757812 295.378906 190.003906 295.421875 188.25 295.421875 C 186.496094 295.421875 184.742188 295.378906 182.992188 295.292969 C 181.242188 295.207031 179.492188 295.078125 177.75 294.90625 C 176.003906 294.734375 174.261719 294.519531 172.527344 294.265625 C 170.792969 294.007812 169.066406 293.707031 167.347656 293.363281 C 165.628906 293.023438 163.917969 292.636719 162.214844 292.210938 C 160.515625 291.785156 158.824219 291.320312 157.148438 290.808594 C 155.46875 290.300781 153.804688 289.75 152.15625 289.160156 C 150.503906 288.570312 148.867188 287.9375 147.25 287.269531 C 145.628906 286.597656 144.027344 285.886719 142.441406 285.136719 C 140.855469 284.386719 139.289062 283.597656 137.742188 282.773438 C 136.195312 281.945312 134.671875 281.082031 133.167969 280.179688 C 131.664062 279.277344 130.183594 278.339844 128.722656 277.367188 C 127.265625 276.390625 125.832031 275.382812 124.425781 274.339844 C 123.015625 273.292969 121.632812 272.214844 120.277344 271.101562 C 118.921875 269.992188 117.597656 268.847656 116.296875 267.667969 C 114.996094 266.492188 113.726562 265.28125 112.488281 264.042969 C 111.25 262.800781 110.039062 261.53125 108.863281 260.234375 C 107.683594 258.933594 106.539062 257.605469 105.425781 256.25 C 104.316406 254.894531 103.238281 253.515625 102.191406 252.105469 C 101.148438 250.695312 100.136719 249.265625 99.164062 247.804688 C 98.191406 246.347656 97.25 244.867188 96.351562 243.363281 C 95.449219 241.859375 94.585938 240.332031 93.757812 238.789062 C 92.933594 237.242188 92.144531 235.675781 91.394531 234.089844 C 90.644531 232.503906 89.933594 230.902344 89.261719 229.28125 C 88.59375 227.664062 87.960938 226.027344 87.371094 224.375 C 86.78125 222.726562 86.230469 221.058594 85.71875 219.382812 C 85.210938 217.703125 84.742188 216.015625 84.316406 214.3125 C 83.890625 212.613281 83.507812 210.902344 83.164062 209.183594 C 82.824219 207.464844 82.523438 205.734375 82.265625 204 C 82.007812 202.265625 81.796875 200.527344 81.625 198.78125 C 81.453125 197.039062 81.320312 195.289062 81.234375 193.539062 C 81.148438 191.785156 81.105469 190.035156 81.105469 188.28125 C 81.105469 186.527344 81.148438 184.773438 81.234375 183.023438 C 81.320312 181.273438 81.453125 179.523438 81.625 177.777344 C 81.796875 176.035156 82.007812 174.292969 82.265625 172.558594 C 82.523438 170.824219 82.824219 169.097656 83.164062 167.378906 C 83.507812 165.660156 83.890625 163.949219 84.316406 162.246094 C 84.742188 160.546875 85.210938 158.855469 85.71875 157.179688 C 86.230469 155.5 86.78125 153.835938 87.371094 152.183594 C 87.960938 150.535156 88.59375 148.898438 89.261719 147.277344 C 89.933594 145.660156 90.644531 144.054688 91.394531 142.472656 C 92.144531 140.886719 92.933594 139.320312 93.757812 137.773438 C 94.585938 136.226562 95.449219 134.703125 96.351562 133.199219 C 97.25 131.695312 98.191406 130.214844 99.164062 128.753906 C 100.136719 127.296875 101.148438 125.863281 102.191406 124.457031 C 103.238281 123.046875 104.316406 121.664062 105.425781 120.308594 C 106.539062 118.953125 107.683594 117.628906 108.863281 116.328125 C 110.039062 115.027344 111.25 113.757812 112.488281 112.519531 C 113.726562 111.277344 114.996094 110.070312 116.296875 108.894531 C 117.597656 107.714844 118.921875 106.570312 120.277344 105.457031 C 121.632812 104.34375 123.015625 103.265625 124.425781 102.222656 C 125.832031 101.179688 127.265625 100.167969 128.722656 99.195312 C 130.183594 98.21875 131.664062 97.28125 133.167969 96.382812 C 134.671875 95.480469 136.195312 94.617188 137.742188 93.789062 C 139.289062 92.960938 140.855469 92.175781 142.441406 91.425781 C 144.027344 90.675781 145.628906 89.964844 147.25 89.292969 C 148.867188 88.621094 150.503906 87.992188 152.15625 87.402344 C 153.804688 86.808594 155.46875 86.261719 157.148438 85.75 C 158.824219 85.242188 160.515625 84.773438 162.214844 84.347656 C 163.917969 83.921875 165.628906 83.539062 167.347656 83.195312 C 169.066406 82.855469 170.792969 82.554688 172.527344 82.296875 C 174.261719 82.039062 176.003906 81.824219 177.75 81.652344 C 179.492188 81.480469 181.242188 81.351562 182.992188 81.265625 C 184.742188 81.179688 186.496094 81.136719 188.25 81.136719 C 190.003906 81.136719 191.757812 81.179688 193.507812 81.265625 C 195.257812 81.351562 197.007812 81.480469 198.75 81.652344 C 200.496094 81.824219 202.238281 82.039062 203.972656 82.296875 C 205.707031 82.554688 207.433594 82.855469 209.152344 83.195312 C 210.871094 83.539062 212.582031 83.921875 214.285156 84.347656 C 215.984375 84.773438 217.675781 85.242188 219.351562 85.75 C 221.03125 86.261719 222.695312 86.808594 224.34375 87.402344 C 225.996094 87.992188 227.632812 88.621094 229.25 89.292969 C 230.871094 89.964844 232.472656 90.675781 234.058594 91.425781 C 235.644531 92.175781 237.210938 92.960938 238.757812 93.789062 C 240.304688 94.617188 241.828125 95.480469 243.332031 96.382812 C 244.835938 97.28125 246.316406 98.21875 247.773438 99.195312 C 249.234375 100.167969 250.667969 101.179688 252.074219 102.222656 C 253.484375 103.265625 254.863281 104.34375 256.21875 105.457031 C 257.574219 106.570312 258.902344 107.714844 260.203125 108.894531 C 261.503906 110.070312 262.773438 111.277344 264.011719 112.519531 C 265.25 113.757812 266.460938 115.027344 267.636719 116.328125 C 268.816406 117.628906 269.960938 118.953125 271.074219 120.308594 C 272.183594 121.664062 273.261719 123.046875 274.308594 124.457031 C 275.351562 125.863281 276.363281 127.296875 277.335938 128.753906 C 278.308594 130.214844 279.246094 131.695312 280.148438 133.199219 C 281.050781 134.703125 281.914062 136.226562 282.742188 137.773438 C 283.566406 139.320312 284.355469 140.886719 285.105469 142.472656 C 285.855469 144.054688 286.566406 145.660156 287.238281 147.277344 C 287.90625 148.898438 288.539062 150.535156 289.128906 152.183594 C 289.71875 153.835938 290.269531 155.5 290.777344 157.179688 C 291.289062 158.855469 291.753906 160.546875 292.183594 162.246094 C 292.609375 163.949219 292.992188 165.660156 293.335938 167.378906 C 293.675781 169.097656 293.976562 170.824219 294.234375 172.558594 C 294.492188 174.292969 294.703125 176.035156 294.875 177.777344 C 295.046875 179.523438 295.179688 181.273438 295.265625 183.023438 C 295.351562 184.773438 295.394531 186.527344 295.394531 188.28125 Z M 295.394531 188.28125 " fill-opacity="1" fill-rule="nonzero" data-index="3" style="opacity: 1;"></path><path   d="M 241.835938 65.832031 C 243.445312 65.832031 245.066406 65.328125 246.445312 64.285156 L 250.269531 61.394531 C 250.636719 62.171875 251.082031 62.9375 251.722656 63.582031 L 312.949219 124.804688 C 313.589844 125.449219 314.355469 125.894531 315.136719 126.261719 L 312.246094 130.085938 C 309.6875 133.453125 310.363281 138.261719 313.730469 140.816406 C 315.105469 141.855469 316.730469 142.363281 318.335938 142.363281 C 320.648438 142.363281 322.945312 141.320312 324.445312 139.332031 L 362.21875 89.386719 C 362.28125 89.3125 362.296875 89.203125 362.355469 89.113281 C 362.402344 89.050781 362.480469 89.019531 362.527344 88.960938 C 375.996094 68.386719 374.90625 43.53125 359.878906 28.515625 L 348.015625 16.652344 C 333.015625 1.621094 308.144531 0.519531 287.570312 14.003906 C 287.496094 14.050781 287.449219 14.144531 287.355469 14.203125 C 287.296875 14.25 287.203125 14.265625 287.144531 14.3125 L 237.199219 52.085938 C 233.832031 54.644531 233.15625 59.433594 235.714844 62.816406 C 237.230469 64.777344 239.511719 65.832031 241.835938 65.832031 Z M 291.84375 29.9375 C 293.816406 30.398438 297.121094 31.515625 301.453125 33.75 C 311.648438 41.464844 327.183594 54.320312 338.878906 68.527344 C 343.945312 76.195312 345.917969 81.8125 346.578125 84.703125 L 324.078125 114.460938 C 323.953125 114.320312 323.90625 114.136719 323.769531 114 L 262.546875 52.777344 C 262.40625 52.636719 262.222656 52.59375 262.085938 52.46875 Z M 291.84375 29.9375 " fill-opacity="1" fill-rule="nonzero" data-index="4"></path><path   d="M 362.328125 287.371094 C 362.28125 287.3125 362.265625 287.21875 362.21875 287.15625 L 324.445312 237.214844 C 321.886719 233.847656 317.097656 233.171875 313.714844 235.730469 C 311.722656 237.246094 310.683594 239.527344 310.683594 241.835938 C 310.683594 243.445312 311.1875 245.066406 312.230469 246.445312 L 315.121094 250.269531 C 314.339844 250.636719 313.578125 251.082031 312.933594 251.722656 L 251.710938 312.949219 C 251.066406 313.589844 250.621094 314.355469 250.253906 315.136719 L 246.429688 312.246094 C 243.0625 309.6875 238.253906 310.363281 235.699219 313.730469 C 234.65625 315.105469 234.152344 316.730469 234.152344 318.335938 C 234.152344 320.648438 235.195312 322.945312 237.183594 324.445312 L 287.128906 362.21875 C 287.203125 362.28125 287.3125 362.296875 287.402344 362.355469 C 287.464844 362.402344 287.496094 362.480469 287.554688 362.527344 C 308.128906 375.996094 332.984375 374.90625 348 359.878906 L 359.863281 348.015625 C 374.894531 333.015625 375.996094 308.144531 362.511719 287.570312 C 362.464844 287.511719 362.371094 287.464844 362.328125 287.371094 Z M 342.765625 301.46875 C 335.050781 311.664062 322.195312 327.199219 307.988281 338.894531 C 300.320312 343.960938 294.703125 345.933594 291.8125 346.59375 L 262.054688 324.09375 C 262.195312 323.96875 262.378906 323.921875 262.515625 323.785156 L 323.738281 262.5625 C 323.878906 262.421875 323.921875 262.238281 324.046875 262.101562 L 346.5625 291.871094 C 346.117188 293.832031 345 297.136719 342.765625 301.46875 Z M 342.765625 301.46875 " fill-opacity="1" fill-rule="nonzero" data-index="5" style="opacity: 1;"></path><path  d="M 14.15625 89.097656 C 14.21875 89.1875 14.21875 89.28125 14.296875 89.371094 L 52.070312 139.316406 C 53.570312 141.304688 55.867188 142.363281 58.179688 142.363281 C 59.785156 142.363281 61.40625 141.855469 62.785156 140.816406 C 66.152344 138.261719 66.828125 133.46875 64.269531 130.085938 L 61.378906 126.261719 C 62.15625 125.894531 62.921875 125.449219 63.566406 124.804688 L 124.789062 63.582031 C 125.433594 62.9375 125.878906 62.171875 126.246094 61.394531 L 130.070312 64.285156 C 131.464844 65.3125 133.085938 65.832031 134.695312 65.832031 C 137.003906 65.832031 139.300781 64.789062 140.800781 62.800781 C 143.355469 59.433594 142.683594 54.628906 139.316406 52.070312 L 89.371094 14.28125 C 89.3125 14.234375 89.234375 14.234375 89.15625 14.171875 C 89.082031 14.128906 89.035156 14.035156 88.945312 13.988281 C 68.371094 0.503906 43.515625 1.605469 28.5 16.636719 L 16.636719 28.5 C 1.605469 43.515625 0.519531 68.371094 13.988281 88.945312 C 14.035156 89.019531 14.113281 89.035156 14.15625 89.097656 Z M 37.652344 68.527344 C 49.347656 54.320312 64.882812 41.464844 75.078125 33.75 C 79.40625 31.515625 82.714844 30.398438 84.6875 29.9375 L 114.460938 52.453125 C 114.320312 52.578125 114.136719 52.621094 114 52.761719 L 52.777344 113.984375 C 52.636719 114.121094 52.59375 114.304688 52.46875 114.445312 L 29.96875 84.6875 C 30.613281 81.8125 32.585938 76.195312 37.652344 68.527344 Z M 37.652344 68.527344 " fill-opacity="1" fill-rule="nonzero" data-index="6" style="opacity: 1;"></path><path  d="M 130.117188 312.261719 L 126.289062 315.152344 C 125.921875 314.371094 125.480469 313.605469 124.835938 312.964844 L 63.613281 251.738281 C 62.96875 251.097656 62.203125 250.652344 61.421875 250.285156 L 64.316406 246.460938 C 65.355469 245.082031 65.863281 243.460938 65.863281 241.851562 C 65.863281 239.539062 64.820312 237.246094 62.832031 235.746094 C 59.464844 233.1875 54.65625 233.863281 52.101562 237.230469 L 14.328125 287.171875 C 14.28125 287.234375 14.265625 287.328125 14.21875 287.386719 C 14.15625 287.464844 14.082031 287.511719 14.019531 287.601562 C 0.535156 308.171875 1.636719 333.046875 16.667969 348.046875 L 28.53125 359.90625 C 43.546875 374.9375 68.402344 376.027344 88.972656 362.554688 C 89.035156 362.511719 89.066406 362.433594 89.128906 362.386719 C 89.21875 362.328125 89.3125 362.328125 89.402344 362.25 L 139.347656 324.472656 C 141.335938 322.960938 142.378906 320.679688 142.378906 318.367188 C 142.378906 316.761719 141.871094 315.136719 140.832031 313.761719 C 138.289062 310.378906 133.484375 309.703125 130.117188 312.261719 Z M 84.71875 346.59375 C 81.84375 345.917969 76.222656 343.960938 68.554688 338.878906 C 54.351562 327.183594 41.496094 311.648438 33.78125 301.453125 C 31.546875 297.121094 30.429688 293.816406 29.96875 291.84375 L 52.484375 262.070312 C 52.605469 262.210938 52.652344 262.394531 52.789062 262.53125 L 114.015625 323.753906 C 114.152344 323.894531 114.335938 323.9375 114.472656 324.0625 Z M 84.71875 346.59375 " fill-opacity="1" fill-rule="nonzero" data-index="7" style="opacity: 1;"></path></svg>